<?xml version="1.0" encoding="utf-8"?>
               <svg xmlns="http://www.w3.org/2000/svg"
                    xmlns:xlink="http://www.w3.org/1999/xlink"
                    xml:space="preserve"
                    viewBox="0 0 19 19">
                    <g xmlns="http://www.w3.org/2000/svg" data-paper-data="{&quot;selected&quot;:false,&quot;guideItem&quot;:null}" fill="#007bff" fill-rule="nonzero" stroke-opacity="0" stroke="#000000" stroke-width="5" stroke-linecap="butt" stroke-linejoin="miter" stroke-miterlimit="10" stroke-dasharray="" stroke-dashoffset="0" font-family="none" font-weight="none" font-size="none" text-anchor="none" style="mix-blend-mode: normal"><g data-paper-data="{&quot;selected&quot;:false,&quot;guideItem&quot;:null}"><path d="M7.33554,1.96807c0,-1.08694 0.88114,-1.96807 1.96807,-1.96807c1.08694,0 1.96807,0.88114 1.96807,1.96807c0,1.08694 -0.88114,1.96807 -1.96807,1.96807c-1.08694,0 -1.96807,-0.88113 -1.96807,-1.96807z" data-paper-data="{&quot;guideItem&quot;:null,&quot;selected&quot;:false}"/><path d="M7.33554,17.04578v-15.28916h3.96868v15.28916z" data-paper-data="{&quot;guideItem&quot;:null,&quot;selected&quot;:false}"/><path d="M7.34856,16.93193c0,-1.08694 0.88113,-1.96807 1.96807,-1.96807c1.08694,0 1.96807,0.88113 1.96807,1.96807c0,1.08694 -0.88114,1.96807 -1.96807,1.96807c-1.08694,0 -1.96807,-0.88114 -1.96807,-1.96807z" data-paper-data="{&quot;guideItem&quot;:null,&quot;selected&quot;:false}"/></g><g data-paper-data="{&quot;selected&quot;:false,&quot;guideItem&quot;:null}"><path d="M16.93193,11.1741c1.08694,0 1.96807,-0.88114 1.96807,-1.96807c0,-1.08694 -0.88114,-1.96807 -1.96807,-1.96807c-1.08694,0 -1.96807,0.88113 -1.96807,1.96807c0,1.08694 0.88113,1.96807 1.96807,1.96807z" data-paper-data="{&quot;guideItem&quot;:null,&quot;selected&quot;:false}"/><path d="M1.85422,11.1741h15.28916v-3.96867h-15.28916z" data-paper-data="{&quot;guideItem&quot;:null,&quot;selected&quot;:false}"/><path d="M1.96807,11.16109c1.08694,0 1.96807,-0.88114 1.96807,-1.96807c0,-1.08694 -0.88113,-1.96807 -1.96807,-1.96807c-1.08694,0 -1.96807,0.88114 -1.96807,1.96807c0,1.08694 0.88114,1.96807 1.96807,1.96807z" data-paper-data="{&quot;guideItem&quot;:null,&quot;selected&quot;:false}"/></g></g>
               </svg>